Coordinates
version=1
nRows=9
nColumns=24
inDegrees=yes

Units are S.I. units (second, meters, Newtons, ...)
Angles are in degrees.

endheader
time	pelvis_tilt	pelvis_list	pelvis_rotation	pelvis_tx	pelvis_ty	pelvis_tz	hip_flexion_r	hip_adduction_r	hip_rotation_r	knee_angle_r	ankle_angle_r	subtalar_angle_r	mtp_angle_r	hip_flexion_l	hip_adduction_l	hip_rotation_l	knee_angle_l	ankle_angle_l	subtalar_angle_l	mtp_angle_l	lumbar_extension	lumbar_bending	lumbar_rotation
      0.45800000	     -0.84448808	      0.19579817	     -3.02584612	     -0.81141390	      1.04558710	      0.30482798	     25.23961861	      2.00033736	      0.40563927	     -1.74982572	      2.08606261	     -5.59450172	      9.14194686	    -18.58598196	      1.56175288	     -2.05556683	     -2.41846039	     16.98880426	      6.98470040	      5.21848042	    -20.36719007	      1.39319179	     -3.85332485
      0.46216667	     -0.80876795	      0.14421012	     -2.92749929	     -0.80536671	      1.04472088	      0.30493622	     25.28544533	      2.07822620	      0.46173920	     -2.15492231	      2.01609241	     -5.75322323	      9.13971943	    -18.74452790	      1.46952932	     -1.95062172	     -2.91645712	     17.15916462	      7.00987606	      5.23662350	    -20.40119146	      1.58685426	     -3.84617848
      0.46633333	     -0.74980118	      0.06636892	     -2.83958844	     -0.79929890	      1.04393042	      0.30509561	     25.27266944	      2.19111246	      0.64801780	     -2.55024369	      1.76147018	     -6.18604788	      9.14176668	    -18.88125746	      1.34051048	     -2.08264598	     -3.50988644	     17.37468757	      7.43206461	      5.31861986	    -20.48667278	      1.83197795	     -3.92080607
      0.47050000	     -0.72216080	     -0.00780284	     -2.73996697	     -0.79316258	      1.04313638	      0.30523347	     25.30392836	      2.29530191	      0.75970346	     -3.03279225	      1.54975121	     -6.51369427	      9.15525693	    -18.97265339	      1.21097781	     -2.14208943	     -4.14014760	     17.57401899	      7.73376762	      5.42670513	    -20.51177236	      2.06059654	     -3.91031543
      0.47466667	     -0.66983069	     -0.08768233	     -2.64199164	     -0.78699624	      1.04242637	      0.30538918	     25.30035089	      2.40537697	      0.88568062	     -3.55239080	      1.31123495	     -6.87596117	      9.18602043	    -19.08152253	      1.07448042	     -2.20334255	     -4.78631208	     17.74888003	      8.02347952	      5.59722246	    -20.57143288	      2.29604071	     -3.91196033
      0.47883333	     -0.62310032	     -0.19381177	     -2.53635484	     -0.78074247	      1.04176841	      0.30552938	     25.28796883	      2.53807624	      0.96966033	     -4.09356553	      0.97002455	     -7.25624758	      9.21169881	    -19.18752199	      0.90834641	     -2.23907437	     -5.43626945	     17.85218168	      8.25767337	      5.74557616	    -20.60807414	      2.57753998	     -3.90843414
      0.48300000	     -0.58862508	     -0.29599340	     -2.42719604	     -0.77445097	      1.04114257	      0.30568616	     25.28224444	      2.66663626	      1.06603942	     -4.66464734	      0.59922893	     -7.67139022	      9.24477170	    -19.25177340	      0.73929557	     -2.30640975	     -6.14262739	     17.95748897	      8.53006211	      5.92674420	    -20.62682105	      2.84945671	     -3.90093816
      0.48716667	     -0.53105127	     -0.40608394	     -2.31669746	     -0.76814779	      1.04060084	      0.30585235	     25.24794730	      2.80111562	      1.14847915	     -5.26131654	      0.19103378	     -8.08857813	      9.28408937	    -19.32396767	      0.55887896	     -2.38828783	     -6.88372193	     18.04125998	      8.82288186	      6.14537413	    -20.67578843	      3.13248426	     -3.88572413
      0.49133333	     -0.49881416	     -0.51844660	     -2.20480877	     -0.76177960	      1.04007426	      0.30603500	     25.23398641	      2.93754618	      1.22597404	     -5.87721182	     -0.26439309	     -8.51990934	      9.32660208	    -19.35228302	      0.37087462	     -2.47463904	     -7.66526394	     18.08333659	      9.10652399	      6.40179643	    -20.68435780	      3.42064769	     -3.86394489
